<svg xmlns="http://www.w3.org/2000/svg" viewBox="0 0 416.35 320"><defs><style>.cls-1{fill:#efefef;}.cls-11,.cls-2{fill:#fff;}.cls-3{fill:#264575;}.cls-4{fill:#fb8b6b;}.cls-5{fill:#e27156;}.cls-6{fill:#e4bd62;}.cls-7{fill:#bb9054;}.cls-10,.cls-8{fill:#a44c3e;}.cls-8,.cls-9{opacity:0.5;}.cls-11{opacity:0.35;}.cls-12{fill:#ccdae2;}.cls-13{fill:#eaf0f4;}.cls-14{fill:#dc9261;}.cls-15,.cls-17{opacity:0.4;}.cls-16{fill:#66a1e8;}.cls-17,.cls-18{fill:#6e51fe;}.cls-19{fill:#a44f46;opacity:0.25;}.cls-20{fill:#f7d8bc;}</style></defs><title>Asset 120</title><g id="Layer_2" data-name="Layer 2"><g id="Layer_1-2" data-name="Layer 1"><polygon class="cls-1" points="344.43 60.49 333.81 59.2 325.8 78.59 330.35 87.72 320.13 171.89 330.75 173.18 340.97 89.01 347.58 81.24 344.43 60.49"/><polygon class="cls-2" points="340.38 63.66 343.52 84.41 336.92 92.19 327.13 172.74 330.75 173.18 340.97 89.01 347.58 81.24 344.43 60.49 333.81 59.2 332.37 62.69 340.38 63.66"/><path class="cls-3" d="M331.48,175.3l-13.6-1.65,10.35-85.2-4.66-9.34L332.29,58l12.88,1.56,3.42,22.55-6.76,8ZM321.22,171l7.64.93L339,88.84l6.46-7.6-2.87-18.95-8.35-1L326.86,79l4.45,8.92-.05.45Z"/><path class="cls-4" d="M351,181.62a3.07,3.07,0,0,0,2.53-2.59l.82-6.78a3.09,3.09,0,0,0-2.69-3.44l-50.74-6.16a3.09,3.09,0,0,0-3.44,2.69l-.82,6.78a3.07,3.07,0,0,0,1.83,3.12,10.53,10.53,0,0,1-2.41,19.88,3.07,3.07,0,0,0-2.53,2.59l-11,90.2a3.09,3.09,0,0,0,2.69,3.44L336,297.51a3.09,3.09,0,0,0,3.44-2.69l11-90.2a3.07,3.07,0,0,0-1.83-3.12A10.53,10.53,0,0,1,351,181.62Z"/><path class="cls-5" d="M342.57,190.69a10.55,10.55,0,0,1,8.42-9.06,3.36,3.36,0,0,0,1.09-.45l-54.56-6.62a3.36,3.36,0,0,0,1,.7,10.53,10.53,0,0,1-2.41,19.88,3.31,3.31,0,0,0-1.42.69l55.16,6.7a3.31,3.31,0,0,0-1.22-1A10.55,10.55,0,0,1,342.57,190.69Z"/><path class="cls-3" d="M336.39,299a4.77,4.77,0,0,1-.56,0l-50.74-6.16a4.6,4.6,0,0,1-4-5.11l11-90.2a4.59,4.59,0,0,1,3.72-3.88,9,9,0,0,0,2.07-17.05,4.59,4.59,0,0,1-2.68-4.66l.82-6.78a4.6,4.6,0,0,1,5.11-4l50.74,6.16a4.6,4.6,0,0,1,4,5.11l-.82,6.78a4.59,4.59,0,0,1-3.72,3.88,9,9,0,0,0-2.07,17.05,4.58,4.58,0,0,1,2.68,4.66l-11,90.2a4.59,4.59,0,0,1-4.55,4ZM300.52,164.13a1.59,1.59,0,0,0-1.58,1.4l-.82,6.78a1.58,1.58,0,0,0,1,1.58,12,12,0,0,1-2.76,22.71,1.58,1.58,0,0,0-1.33,1.3l-11,90.2a1.59,1.59,0,0,0,1.39,1.77L336.19,296a1.56,1.56,0,0,0,1.17-.33,1.58,1.58,0,0,0,.6-1.06l11-90.2a1.57,1.57,0,0,0-1-1.58,12,12,0,0,1,2.76-22.71h0a1.58,1.58,0,0,0,1.33-1.3l.82-6.78a1.59,1.59,0,0,0-1.39-1.77l-50.74-6.16Z"/><rect class="cls-5" x="288.42" y="244.13" width="80.81" height="5.8" transform="translate(613.69 -49.61) rotate(96.92)"/><rect class="cls-5" x="279.81" y="243.09" width="80.81" height="5.8" transform="translate(603.01 -42.24) rotate(96.92)"/><rect class="cls-5" x="271.21" y="242.04" width="80.81" height="5.8" transform="translate(592.33 -34.87) rotate(96.92)"/><rect class="cls-5" x="262.6" y="241" width="80.81" height="5.8" transform="translate(581.65 -27.5) rotate(96.92)"/><g id="_Group_" data-name="&lt;Group&gt;"><rect id="_Path_" data-name="&lt;Path&gt;" class="cls-6" x="40.7" y="173.39" width="249.23" height="24.83" rx="5.67" ry="5.67" transform="translate(-53.66 303.71) rotate(-76.64)"/></g><path class="cls-7" d="M193.61,64.44,136,306.93l8.13,1.93a4.42,4.42,0,0,0,5.32-3.28L204.94,72a4.77,4.77,0,0,0-3.54-5.74Z"/><path class="cls-8" d="M175.08,137.38c-1.76,8.61-3.11,17.33-5.28,25.86-1.1,4.3-2.43,8.54-3.71,12.8l-1.62,5.41c-.16.52-1.27,5.78-.46,3.05,2.25-7.62,2.88-15.94,4.73-23.7a218.15,218.15,0,0,1,7.16-24c.17-.45-.56-.65-.72-.2-5.94,16.29-9.42,33.24-12.33,50.29a.38.38,0,0,0,.72.2c2.45-8.15,5.15-16.27,7.19-24.53s3.35-16.63,5.05-24.94c.1-.47-.63-.67-.72-.2Z"/><path class="cls-8" d="M138.87,251.16c-1.76,8.61-3.11,17.33-5.28,25.86-1.1,4.3-2.43,8.54-3.71,12.8l-1.62,5.41c-.16.52-1.27,5.78-.46,3.05,2.25-7.62,2.88-15.94,4.73-23.7a218.15,218.15,0,0,1,7.16-24c.17-.45-.56-.65-.72-.2-5.94,16.29-9.42,33.24-12.33,50.29a.38.38,0,0,0,.72.2c2.45-8.15,5.15-16.27,7.19-24.53s3.35-16.63,5.05-24.94c.1-.47-.63-.67-.72-.2Z"/><path class="cls-8" d="M194.89,64.21a314.56,314.56,0,0,0-15,52.9c-3.55,18.27-5.28,36.73-10.37,54.71-4.84,17.1-12,33.45-16.9,50.53a418.29,418.29,0,0,0-12,54.87c-.07.47.65.68.72.2a418.29,418.29,0,0,1,12-54.87c4.94-17.09,12.06-33.43,16.9-50.53,5.08-18,6.82-36.43,10.37-54.71a314.56,314.56,0,0,1,15-52.9c.17-.45-.55-.65-.72-.2Z"/><path class="cls-8" d="M178.48,115.42a294.4,294.4,0,0,0-14.21,48.16c-3.54,16.88-6.5,33.75-11.53,50.29-9.26,30.4-19,60.14-21.24,92.08,0,.48.72.48.75,0a279.58,279.58,0,0,1,7.91-47.9c3.86-15.48,9.26-30.48,13.83-45.74,4.78-16,7.6-32.25,11-48.52a293.65,293.65,0,0,1,14.21-48.16c.18-.45-.55-.64-.72-.2Z"/><path class="cls-8" d="M189.87,64.21c-9,20.1-11.61,41.88-18.61,62.6s-14.18,40.6-16.72,62.45c-.06.48.69.47.75,0C157.83,167.47,165,147.64,172,127s9.52-42.39,18.53-62.43c.2-.44-.45-.82-.65-.38Z"/><g class="cls-9"><path class="cls-10" d="M148,263.89c-.36,15.09-6.23,28.8-9.93,43.21a.38.38,0,0,0,.72.2c3.72-14.47,9.59-28.27,10-43.41a.38.38,0,0,0-.75,0Z"/><path class="cls-10" d="M148.06,263.33c-6.2,14.06-8.14,28.94-10.2,44-.06.47.66.68.72.2,2.05-15,4-29.85,10.12-43.83.19-.44-.45-.82-.65-.38Z"/></g><g class="cls-9"><path class="cls-10" d="M165.11,199.76c-.36,15.09-6.23,28.8-9.93,43.21a.38.38,0,0,0,.72.2c3.72-14.47,9.59-28.27,10-43.41a.38.38,0,0,0-.75,0Z"/><path class="cls-10" d="M165.19,199.2c-6.2,14.06-8.14,28.94-10.2,44-.06.47.66.68.72.2,2.05-15,4-29.85,10.12-43.83.19-.44-.45-.82-.65-.38Z"/></g><g class="cls-9"><path class="cls-10" d="M201.61,66.38c-5,17-10.39,34.61-9.79,52.54,0,.48.77.48.75,0-.6-17.86,4.78-35.39,9.76-52.34a.38.38,0,0,0-.72-.2Z"/><path class="cls-10" d="M191.52,96.66c-2.16,8.89-2.39,16.89-2.1,26,0,.48.77.48.75,0-.29-9-.08-16.94,2.07-25.79.11-.47-.61-.67-.72-.2Z"/></g><path class="cls-8" d="M184.79,122.88c-2.11,9.89-2.76,19.62-3.32,29.68-.61,11-3.41,21.75-6.18,32.39a.38.38,0,0,0,.72.2c2.47-9.51,5-19.11,5.94-28.92,1.06-11.18,1.2-22.09,3.56-33.15.1-.47-.62-.67-.72-.2Z"/><path class="cls-8" d="M171.31,185.31c-2.11,9.89-2.76,19.62-3.32,29.68-.61,11-3.41,21.75-6.18,32.39a.38.38,0,0,0,.72.2c2.47-9.51,5-19.11,5.94-28.92,1.06-11.18,1.2-22.09,3.56-33.15.1-.47-.62-.67-.72-.2Z"/><path class="cls-8" d="M152.79,238c-1.06,9.62-.49,18.78.07,28.39.59,10.25-1.19,20.52-2.77,30.6-.07.47.65.68.72.2,1.51-9.61,3.2-19.37,2.88-29.13-.34-10.18-1.27-19.85-.14-30.06.05-.48-.7-.48-.75,0Z"/><polygon class="cls-2" points="140.01 244.98 138.48 244.62 138.6 244.01 140.14 244.37 140.01 244.98"/><g id="_Group_2" data-name="&lt;Group&gt;"><path class="cls-3" d="M143.83,310.1a8,8,0,0,1-1.85-.22l-11.62-2.76a7.94,7.94,0,0,1-5.89-9.56L179.55,65.64a5.92,5.92,0,0,1,7.12-4.38L202.25,65a5.91,5.91,0,0,1,4.38,7.12L151.54,304a7.95,7.95,0,0,1-7.71,6.11Zm41.47-246a2.92,2.92,0,0,0-2.83,2.24L127.38,298.26a4.94,4.94,0,0,0,3.67,5.95L142.68,307a4.94,4.94,0,0,0,6-3.67L203.71,71.38a2.91,2.91,0,0,0-2.16-3.5L186,64.17A2.9,2.9,0,0,0,185.31,64.09Z"/></g><path class="cls-1" d="M109.11,44.37h0A86.16,86.16,0,0,0,91.38,119h0l2.66-.26a232.49,232.49,0,0,1,120.35,20.2h0l6.78-28.53,6.78-28.53L196.2,76.51a251.36,251.36,0,0,1-87.09-32.14Z"/><path class="cls-2" d="M196.2,76.51a251.36,251.36,0,0,1-87.09-32.14h0A85.41,85.41,0,0,0,90.9,82.27,85,85,0,0,1,107.84,49.7h0a251.36,251.36,0,0,0,87.09,32.14l31.75,5.36,1.27-5.33Z"/><path class="cls-4" d="M227.74,82.73l-13.5,56.82a231.34,231.34,0,0,0-40.49-14.12l-2.77-.68-1.78-.41a232,232,0,0,0-53.13-5.94c-.87-30.79,7.29-49.41,11.79-57.25a35.68,35.68,0,0,1,2.85-4.36,250.06,250.06,0,0,0,47.73,16.9l1.7.41q8.31,2,16.74,3.42Z"/><path class="cls-11" d="M196,77.31q-8.44-1.43-16.74-3.42l-1.7-.41a250.06,250.06,0,0,1-47.73-16.9A35.68,35.68,0,0,0,127,60.94a69.35,69.35,0,0,0-3.65,7.43c.61-1.21,1.18-2.29,1.71-3.2a35.68,35.68,0,0,1,2.85-4.36,250.06,250.06,0,0,0,47.73,16.9l1.7.41q8.31,2,16.74,3.42l30.85,5.21L212.5,139l.85.38,13.5-56.82Z"/><path class="cls-3" d="M214.54,140.84l-1.66-.77A232.06,232.06,0,0,0,93.3,120l-4,.39-.3-1.27a88,88,0,0,1,18-75.93l.82-1,1.09.65a249.35,249.35,0,0,0,86.57,31.95l33.33,5.63ZM116,115.9a234.64,234.64,0,0,1,96.49,20.69l12.76-53.72-30.17-5.09a252.26,252.26,0,0,1-86.5-31.68,85.09,85.09,0,0,0-16.89,71L93,117C100.66,116.27,108.33,115.9,116,115.9Z"/><path class="cls-3" d="M113.88,117.44c-1.19-42.36,14.31-61.81,15-62.61l2.32,1.9-1.16-1,1.16.95c-.15.19-15.45,19.49-14.3,60.63Z"/><rect class="cls-3" x="204.66" y="89.31" width="21.91" height="2" transform="translate(77.93 279.23) rotate(-76.64)"/><rect class="cls-3" x="199.84" y="93.8" width="21.91" height="2" transform="translate(69.86 277.99) rotate(-76.64)"/><rect class="cls-12" x="11.06" y="28.35" width="403.79" height="13.61" rx="6.8" ry="6.8"/><path class="cls-13" d="M414.85,35.15A6.83,6.83,0,0,1,408,42H17.87a6.8,6.8,0,0,1-6.49-8.83H414.54A6.8,6.8,0,0,1,414.85,35.15Z"/><path class="cls-3" d="M408,43.45H17.87a8.3,8.3,0,1,1,0-16.61H408a8.3,8.3,0,1,1,0,16.61ZM17.87,29.85a5.3,5.3,0,1,0,0,10.61H408a5.3,5.3,0,1,0,0-10.61Z"/><rect class="cls-14" x="-51.58" y="87.43" width="185.46" height="13.61" rx="6.8" ry="6.8" transform="translate(135.38 53.08) rotate(90)"/><path class="cls-3" d="M41.15,188.46a8.31,8.31,0,0,1-8.3-8.3V8.3a8.3,8.3,0,1,1,16.61,0V180.16A8.31,8.31,0,0,1,41.15,188.46ZM41.15,3a5.31,5.31,0,0,0-5.3,5.3V180.16a5.3,5.3,0,1,0,10.61,0V8.3A5.31,5.31,0,0,0,41.15,3Z"/><g class="cls-15"><path class="cls-10" d="M40,2.07c1.36,4.24-2.68,7.77-1.71,12,1,4.39,5.47,8.76,8.05,12.32.56.77,1.86,0,1.3-.76-3-4.15-9-9.88-7.58-15.42.8-3.13,2.44-5.27,1.39-8.54-.29-.92-1.74-.52-1.45.4Z"/><path class="cls-10" d="M37.34,22.68a196,196,0,0,1,7.75,21.18c.29.92,1.74.52,1.45-.4a199.35,199.35,0,0,0-7.9-21.54c-.4-.88-1.69-.12-1.3.76Z"/><path class="cls-10" d="M38.25,35.2c1.88,4.25,4,8.82,3.88,13.58-.09,3.09-1.9,5.78-2,8.82-.11,4.77,3.79,8.75,6.71,12.08.64.73,1.7-.34,1.06-1.06C45.64,66,42.59,63,41.85,59.5s1.41-6.51,1.7-9.84c.47-5.36-1.89-10.43-4-15.21-.39-.88-1.68-.12-1.3.76Z"/><path class="cls-10" d="M35.46,73.66c4.94,5,5.16,9.57,5,16.15A17,17,0,0,0,42.89,100c.51.82,1.81.06,1.3-.76C40.82,93.82,42.66,88.62,42,82.78c-.46-4.23-2.57-7.24-5.49-10.19a.75.75,0,0,0-1.06,1.06Z"/><path class="cls-10" d="M35,84.25c1.88,4,1.55,7.57,2.27,11.76.55,3.18,2.46,5.88,4.24,8.5.54.79,1.84,0,1.3-.76-2.61-3.84-3.93-6.94-4.2-11.63a23.15,23.15,0,0,0-2.31-8.62c-.41-.87-1.7-.11-1.3.76Z"/><path class="cls-10" d="M46.63,120.3c-2.36,3-4.58,5.84-5.25,9.65-.75,4.3-.76,8.81-1.1,13.16-.07,1,1.43,1,1.5,0,.27-3.43.46-6.87.8-10.29.48-4.85,2.14-7.73,5.11-11.45.6-.75-.46-1.82-1.06-1.06Z"/><path class="cls-10" d="M47.44,126.91c-4.07,8.76-3.84,18.59-7.28,27.54-.35.9,1.1,1.29,1.45.4,3.4-8.83,3.12-18.54,7.13-27.18.4-.87-.89-1.63-1.3-.76Z"/><path class="cls-10" d="M40.07,162.45c-.46,8.28.31,15.62,6.12,22,.65.71,1.71-.35,1.06-1.06-5.56-6.07-6.11-13.08-5.68-20.9.05-1-1.45-1-1.5,0Z"/><path class="cls-10" d="M38.08,176.24c-1.23,4.79,3.38,8.12,7.17,9.85.87.4,1.63-.89.76-1.3-3.08-1.41-7.52-4.11-6.48-8.15a.75.75,0,0,0-1.45-.4Z"/></g><rect class="cls-14" x="277.19" y="87.43" width="185.46" height="13.61" rx="6.8" ry="6.8" transform="translate(464.15 -275.69) rotate(90)"/><path class="cls-3" d="M369.92,188.46a8.31,8.31,0,0,1-8.3-8.3V8.3a8.3,8.3,0,0,1,16.61,0V180.16A8.31,8.31,0,0,1,369.92,188.46ZM369.92,3a5.31,5.31,0,0,0-5.3,5.3V180.16a5.3,5.3,0,0,0,10.61,0V8.3A5.31,5.31,0,0,0,369.92,3Z"/><g class="cls-15"><path class="cls-10" d="M368.73,2.07c1.36,4.24-2.68,7.77-1.71,12,1,4.39,5.47,8.76,8.05,12.32.56.77,1.86,0,1.3-.76-3-4.15-9-9.88-7.58-15.42.8-3.13,2.44-5.27,1.39-8.54-.29-.92-1.74-.52-1.45.4Z"/><path class="cls-10" d="M366.11,22.68a196,196,0,0,1,7.75,21.18c.29.92,1.74.52,1.45-.4a199.35,199.35,0,0,0-7.9-21.54c-.4-.88-1.69-.12-1.3.76Z"/><path class="cls-10" d="M367,35.2c1.88,4.25,4,8.82,3.88,13.58-.09,3.09-1.9,5.78-2,8.82-.11,4.77,3.79,8.75,6.71,12.08.64.73,1.7-.34,1.06-1.06-2.3-2.61-5.35-5.57-6.09-9.12s1.41-6.51,1.7-9.84c.47-5.36-1.89-10.43-4-15.21-.39-.88-1.68-.12-1.3.76Z"/><path class="cls-10" d="M364.23,73.66c4.94,5,5.16,9.57,5,16.15A17,17,0,0,0,371.66,100c.51.82,1.81.06,1.3-.76-3.37-5.39-1.52-10.58-2.16-16.42-.46-4.23-2.57-7.24-5.49-10.19a.75.75,0,0,0-1.06,1.06Z"/><path class="cls-10" d="M363.79,84.25c1.88,4,1.55,7.57,2.27,11.76.55,3.18,2.46,5.88,4.24,8.5.54.79,1.84,0,1.3-.76-2.61-3.84-3.93-6.94-4.2-11.63a23.15,23.15,0,0,0-2.31-8.62c-.41-.87-1.7-.11-1.3.76Z"/><path class="cls-10" d="M375.39,120.3c-2.36,3-4.58,5.84-5.25,9.65-.75,4.3-.76,8.81-1.1,13.16-.07,1,1.43,1,1.5,0,.27-3.43.46-6.87.8-10.29.48-4.85,2.14-7.73,5.11-11.45.6-.75-.46-1.82-1.06-1.06Z"/><path class="cls-10" d="M376.21,126.91c-4.07,8.76-3.84,18.59-7.28,27.54-.35.9,1.1,1.29,1.45.4,3.4-8.83,3.12-18.54,7.13-27.18.4-.87-.89-1.63-1.3-.76Z"/><path class="cls-10" d="M368.84,162.45c-.46,8.28.31,15.62,6.12,22,.65.71,1.71-.35,1.06-1.06-5.56-6.07-6.11-13.08-5.68-20.9.05-1-1.45-1-1.5,0Z"/><path class="cls-10" d="M366.85,176.24c-1.23,4.79,3.38,8.12,7.17,9.85.87.4,1.63-.89.76-1.3-3.08-1.41-7.52-4.11-6.48-8.15a.75.75,0,0,0-1.45-.4Z"/></g><path class="cls-1" d="M285.08,28.71l2.15,35.55a15.55,15.55,0,1,1-31.05,1.88L254,30.59a38.87,38.87,0,0,0,4.31,71.12l3.67,60.6a38.84,38.84,0,0,0,4.31,71.12l-2.15-35.55A15.55,15.55,0,0,1,295.22,196l2.15,35.55a38.87,38.87,0,0,0-4.31-71.12l-3.67-60.59a38.84,38.84,0,0,0-4.31-71.12Z"/><path class="cls-2" d="M259.9,226.54A38.88,38.88,0,0,1,268,162.8l-3.67-60.6a38.88,38.88,0,0,1-15.74-62.3,38.37,38.37,0,0,1,6.5-5.83l-.16-2.69a38.87,38.87,0,0,0,4.31,71.12l3.67,60.6a38.84,38.84,0,0,0,4.31,71.12l-.16-2.68A38.32,38.32,0,0,1,259.9,226.54Z"/><path class="cls-3" d="M268,235.62l-2.15-.79a40.37,40.37,0,0,1-5.35-73.4l-3.55-58.66a40.35,40.35,0,0,1-3.56-73.51l2-1L257.68,66a14.06,14.06,0,0,0,28.06-1.7l-2.29-37.83,2.15.79a40.37,40.37,0,0,1,5.35,73.41l3.55,58.66a40.35,40.35,0,0,1,3.56,73.52l-2,1-2.29-37.84a14.06,14.06,0,1,0-28.06,1.7ZM252.67,33a37.37,37.37,0,0,0,6.18,67.26l.92.34,3.79,62.56-.87.45a37.34,37.34,0,0,0,2,67.51l-2-33.18a17.05,17.05,0,1,1,34-2.06l2,33.18a37,37,0,0,0,8.95-7.36,37.38,37.38,0,0,0-15.13-59.89l-.92-.34-3.79-62.56.88-.45a37.34,37.34,0,0,0-2-67.51l2,33.18a17.05,17.05,0,0,1-34,2.06Z"/><rect class="cls-3" x="284.33" y="114.52" width="2" height="25.73" transform="translate(-8.04 19.8) rotate(-3.92)"/><rect class="cls-3" x="282.77" y="100.9" width="2" height="7.5" transform="translate(-6.49 19.64) rotate(-3.92)"/><polygon class="cls-16" points="68.43 156.77 48.25 66.4 64.53 63.29 84.7 153.66 68.43 156.77"/><polygon class="cls-17" points="69.78 87.2 67.61 77.53 51.34 80.63 53.59 90.71 69.78 87.2"/><path class="cls-3" d="M68.6,164.62,47.78,71.32,67,67.65l20.83,93.3ZM51.38,73.68,70.9,161.12l13.33-2.54L64.71,71.14Z"/><polygon class="cls-16" points="51.49 81.09 37.9 57.53 40.51 30.45 56.72 26.94 70.32 50.5 67.7 77.58 51.49 81.09"/><g class="cls-15"><polygon class="cls-18" points="52.06 76.02 40.89 56.82 42.93 34.81 56.15 32.01 67.33 51.21 65.28 73.22 52.06 76.02"/></g><path class="cls-3" d="M50.74,82.79,36.36,57.86l2.77-28.64,18.35-4L71.86,50.17,69.09,78.81ZM39.43,57.2l12.81,22.2,14.07-3.05,2.47-25.51L56,28.64,41.9,31.69Z"/><path class="cls-4" d="M93.43,234.34A16.37,16.37,0,0,1,74,221.81l-17.33-80a16.37,16.37,0,0,1,12.53-19.46h0a16.37,16.37,0,0,1,19.46,12.53l17.33,80a16.36,16.36,0,0,1-12.53,19.46Z"/><path class="cls-11" d="M61.07,126.81a16.34,16.34,0,0,0-4.44,15l17.33,80a16.34,16.34,0,0,0,10.27,11.85Z"/><path class="cls-3" d="M89.92,236.22A17.88,17.88,0,0,1,72.5,222.13l-17.33-80a17.87,17.87,0,0,1,34.92-7.57l17.33,80a17.89,17.89,0,0,1-17.5,21.65ZM72.63,123.52a14.87,14.87,0,0,0-14.53,18l17.33,80a14.87,14.87,0,0,0,17.68,11.38h0a14.88,14.88,0,0,0,11.38-17.68l-17.33-80A14.89,14.89,0,0,0,72.63,123.52Z"/><rect class="cls-3" x="91.27" y="154.41" width="2" height="32.02" transform="translate(-32.08 21.78) rotate(-11.48)"/><rect class="cls-3" x="85.69" y="138.96" width="2" height="7.95" transform="translate(-26.71 20.11) rotate(-11.48)"/><rect class="cls-14" x="19.52" y="172.14" width="377.31" height="139.74" rx="9.29" ry="9.29"/><path class="cls-19" d="M396.83,263.26V305a6.83,6.83,0,0,1-6.83,6.83H203.09l136.46-8.58A67.18,67.18,0,0,0,396.83,263.26Z"/><path class="cls-20" d="M396.1,182.43v-4.2a6.83,6.83,0,0,0-6.83-6.83H25.62a6.83,6.83,0,0,0-6.83,6.83v4.2l32.79-2.93a76.5,76.5,0,0,1,16.75.35l27.55,3.61a76.5,76.5,0,0,0,18,.23l24-2.53a76.5,76.5,0,0,1,17.76.2l23.34,3a76.5,76.5,0,0,0,15.78.39l39.43-3.12a76.5,76.5,0,0,1,16.9.54l33.08,4.75a76.5,76.5,0,0,0,29.42-1.51h0a76.5,76.5,0,0,1,24.16-2.08l28.18,2.07a76.5,76.5,0,0,0,19.06-1Z"/><g class="cls-9"><path class="cls-10" d="M107.84,259.13c9.83-.72,19.62-2.55,29.5-2.39,10.06.16,20.21,2.3,30.16,3.69V259c-20.16,3.08-40.56,4.54-60.44-1a.75.75,0,0,0-.4,1.45c20.13,5.66,40.82,4.17,61.24,1a.76.76,0,0,0,0-1.45c-9.49-1.33-19.12-3.29-28.7-3.69-10.5-.44-20.92,1.58-31.36,2.34-1,.07-1,1.57,0,1.5Z"/><path class="cls-10" d="M161.55,291.49c9.83-.72,19.62-2.55,29.5-2.39,10.06.16,20.21,2.3,30.16,3.69v-1.45c-20.16,3.08-40.56,4.54-60.44-1a.75.75,0,0,0-.4,1.45c20.13,5.66,40.82,4.17,61.24,1a.76.76,0,0,0,0-1.45c-9.49-1.33-19.12-3.29-28.7-3.69-10.5-.44-20.92,1.58-31.36,2.34-1,.07-1,1.57,0,1.5Z"/><path class="cls-10" d="M247.75,284.14c9.83-.72,19.62-2.55,29.5-2.39,10.06.16,20.21,2.3,30.16,3.69V284c-20.16,3.08-40.56,4.54-60.44-1a.75.75,0,0,0-.4,1.45c20.13,5.66,40.82,4.17,61.24,1a.76.76,0,0,0,0-1.45c-9.49-1.33-19.12-3.29-28.7-3.69-10.5-.44-20.92,1.58-31.36,2.34-1,.07-1,1.57,0,1.5Z"/><path class="cls-10" d="M46.63,284.14c9.83-.72,19.62-2.55,29.5-2.39,10.06.16,20.21,2.3,30.16,3.69V284c-20.16,3.08-40.56,4.54-60.44-1a.75.75,0,0,0-.4,1.45c20.13,5.66,40.82,4.17,61.24,1a.76.76,0,0,0,0-1.45c-9.49-1.33-19.12-3.29-28.7-3.69-10.5-.44-20.92,1.58-31.36,2.34-1,.07-1,1.57,0,1.5Z"/><path class="cls-10" d="M18.63,252.51a158.1,158.1,0,0,0,48.55,7.35c17.07,0,33.06-3.81,49.75-6.72,18.89-3.29,37.26-1.53,55.59,3.78,15.81,4.58,31.55,8.06,48,9.19a209.29,209.29,0,0,0,56.71-3.76c.94-.2.54-1.64-.4-1.45-33.73,7-68.28,5-101.25-4.64-16.08-4.69-32-7.48-48.77-6-17.07,1.54-33.46,6.88-50.65,7.82a158.72,158.72,0,0,1-57.15-7c-.92-.3-1.32,1.15-.4,1.45Z"/><path class="cls-10" d="M81.62,264.07a146.46,146.46,0,0,0,42.65,7.81c15.74.58,31.22-2,46.89-2.91,31.58-1.79,61.76,10.28,93.34,9.27a143.83,143.83,0,0,0,48-9.46c.89-.35.5-1.8-.4-1.45-17.95,7-37.42,9.93-56.66,9.43s-37.88-5.6-56.91-8.17c-19.77-2.67-38.79.39-58.51,1.58a149.27,149.27,0,0,1-58-7.56c-.91-.32-1.31,1.13-.4,1.45Z"/><path class="cls-10" d="M19.92,266.12a93.15,93.15,0,0,0,34.39,8.08c14.87.72,29.27-.94,44,2.49,12.23,2.86,24,7.09,36.63,8.23a104.5,104.5,0,0,0,37.93-3.46.75.75,0,0,0-.4-1.45,103.08,103.08,0,0,1-37.53,3.4c-13.05-1.2-25.26-5.77-38-8.58-12.27-2.7-24.44-2-36.9-2-13.51-.05-27-2.35-39.33-8-.87-.4-1.63.89-.76,1.3Z"/><path class="cls-10" d="M21.66,288.34a146.46,146.46,0,0,0,42.65,7.81c15.74.58,31.22-2,46.89-2.91,31.58-1.79,61.76,10.28,93.34,9.27a143.83,143.83,0,0,0,48-9.46c.89-.35.5-1.8-.4-1.45-17.95,7-37.42,9.93-56.66,9.43s-37.88-5.6-56.91-8.17c-19.77-2.67-38.79.39-58.51,1.58a149.27,149.27,0,0,1-58-7.56c-.91-.32-1.31,1.13-.4,1.45Z"/></g><g class="cls-9"><path class="cls-10" d="M107.84,208.38c9.83-.72,19.62-2.55,29.5-2.39,10.06.16,20.21,2.3,30.16,3.69v-1.45c-20.16,3.08-40.56,4.54-60.44-1a.75.75,0,0,0-.4,1.45c20.13,5.66,40.82,4.17,61.24,1a.76.76,0,0,0,0-1.45c-9.49-1.33-19.12-3.29-28.7-3.69-10.5-.44-20.92,1.58-31.36,2.34-1,.07-1,1.57,0,1.5Z"/><path class="cls-10" d="M161.55,240.74c9.83-.72,19.62-2.55,29.5-2.39,10.06.16,20.21,2.3,30.16,3.69V240.6c-20.16,3.08-40.56,4.54-60.44-1a.75.75,0,0,0-.4,1.45c20.13,5.66,40.82,4.17,61.24,1a.76.76,0,0,0,0-1.45c-9.49-1.33-19.12-3.29-28.7-3.69-10.5-.44-20.92,1.58-31.36,2.34-1,.07-1,1.57,0,1.5Z"/><path class="cls-10" d="M247.75,233.39c9.83-.72,19.62-2.55,29.5-2.39,10.06.16,20.21,2.3,30.16,3.69v-1.45c-20.16,3.08-40.56,4.54-60.44-1a.75.75,0,0,0-.4,1.45c20.13,5.66,40.82,4.17,61.24,1a.76.76,0,0,0,0-1.45c-9.49-1.33-19.12-3.29-28.7-3.69-10.5-.44-20.92,1.58-31.36,2.34-1,.07-1,1.57,0,1.5Z"/><path class="cls-10" d="M46.63,233.39c9.83-.72,19.62-2.55,29.5-2.39,10.06.16,20.21,2.3,30.16,3.69v-1.45c-20.16,3.08-40.56,4.54-60.44-1a.75.75,0,0,0-.4,1.45c20.13,5.66,40.82,4.17,61.24,1a.76.76,0,0,0,0-1.45c-9.49-1.33-19.12-3.29-28.7-3.69-10.5-.44-20.92,1.58-31.36,2.34-1,.07-1,1.57,0,1.5Z"/><path class="cls-10" d="M18.63,201.77a158.1,158.1,0,0,0,48.55,7.35c17.07,0,33.06-3.81,49.75-6.72,18.89-3.29,37.26-1.53,55.59,3.78,15.81,4.58,31.55,8.06,48,9.19a209.29,209.29,0,0,0,56.71-3.76c.94-.2.54-1.64-.4-1.45-33.73,7-68.28,5-101.25-4.64-16.08-4.69-32-7.48-48.77-6-17.07,1.54-33.46,6.88-50.65,7.82a158.72,158.72,0,0,1-57.15-7c-.92-.3-1.32,1.15-.4,1.45Z"/><path class="cls-10" d="M81.62,213.32a146.46,146.46,0,0,0,42.65,7.81c15.74.58,31.22-2,46.89-2.91,31.58-1.79,61.76,10.28,93.34,9.27a143.83,143.83,0,0,0,48-9.46c.89-.35.5-1.8-.4-1.45-17.95,7-37.42,9.93-56.66,9.43s-37.88-5.6-56.91-8.17c-19.77-2.67-38.79.39-58.51,1.58a149.27,149.27,0,0,1-58-7.56c-.91-.32-1.31,1.13-.4,1.45Z"/><path class="cls-10" d="M19.92,215.37a93.15,93.15,0,0,0,34.39,8.08c14.87.72,29.27-.94,44,2.49,12.23,2.86,24,7.09,36.63,8.23a104.5,104.5,0,0,0,37.93-3.46.75.75,0,0,0-.4-1.45,103.08,103.08,0,0,1-37.53,3.4c-13.05-1.2-25.26-5.77-38-8.58-12.27-2.7-24.44-2-36.9-2-13.51-.05-27-2.35-39.33-8-.87-.4-1.63.89-.76,1.3Z"/><path class="cls-10" d="M21.66,237.59a146.46,146.46,0,0,0,42.65,7.81c15.74.58,31.22-2,46.89-2.91,31.58-1.79,61.76,10.28,93.34,9.27a143.83,143.83,0,0,0,48-9.46c.89-.35.5-1.8-.4-1.45-17.95,7-37.42,9.93-56.66,9.43s-37.88-5.6-56.91-8.17c-19.77-2.67-38.79.39-58.51,1.58a149.27,149.27,0,0,1-58-7.56c-.91-.32-1.31,1.13-.4,1.45Z"/></g><rect class="cls-3" x="33.83" y="236.12" width="3" height="55.16"/><rect class="cls-3" x="33.83" y="203.76" width="3" height="21.33"/><g class="cls-9"><path class="cls-10" d="M305.83,251.93a32.6,32.6,0,0,1,26.41-6.45c8.58,1.75,16.39,4.71,25.27,5.26,1,.06,1-1.44,0-1.5a78.16,78.16,0,0,1-18-3.19c-4.37-1.33-8.53-2.63-13.13-2.68a34.47,34.47,0,0,0-21.64,7.51c-.76.59.31,1.65,1.06,1.06Z"/><path class="cls-10" d="M304.49,252.29a41.3,41.3,0,0,0,24.34,7.18c10.1-.32,19.82-4.92,29.21-8.22.9-.32.52-1.77-.4-1.45-8.71,3.06-17.88,7.38-27.18,8.08A39.75,39.75,0,0,1,305.25,251c-.8-.54-1.56.76-.76,1.3Z"/></g><g class="cls-9"><path class="cls-10" d="M324.07,231.18a45.34,45.34,0,0,1,26.49-4.29c8.55,1.13,16.66,3.11,25.34,3.46,1,0,1-1.46,0-1.5-10-.41-19.53-3.41-29.41-3.83a46.54,46.54,0,0,0-23.18,4.87c-.86.44-.1,1.73.76,1.3Z"/><path class="cls-10" d="M322.88,231.34a57.2,57.2,0,0,0,24.81,4.77c9.74-.28,19.3-3.24,28.74-5.43.94-.22.54-1.66-.4-1.45-17.75,4.12-34.86,8.56-52.39.81-.87-.39-1.64.91-.76,1.3Z"/></g><g class="cls-9"><path class="cls-10" d="M341.72,184.11a45.34,45.34,0,0,1,26.49-4.29c8.55,1.13,16.66,3.11,25.34,3.46,1,0,1-1.46,0-1.5-10-.41-19.53-3.41-29.41-3.83A46.54,46.54,0,0,0,341,182.82c-.86.44-.1,1.73.76,1.3Z"/><path class="cls-10" d="M340.53,184.27A57.2,57.2,0,0,0,365.34,189c9.74-.28,19.3-3.24,28.74-5.43.94-.22.54-1.66-.4-1.45-17.75,4.12-34.86,8.56-52.39.81-.87-.39-1.64.91-.76,1.3Z"/></g><g class="cls-9"><path class="cls-10" d="M182.12,195.14a45.34,45.34,0,0,1,26.49-4.29c8.55,1.13,16.66,3.11,25.34,3.46,1,0,1-1.46,0-1.5-10-.41-19.53-3.41-29.41-3.83a46.54,46.54,0,0,0-23.18,4.87c-.86.44-.1,1.73.76,1.3Z"/><path class="cls-10" d="M180.93,195.3a57.2,57.2,0,0,0,24.81,4.77c9.74-.28,19.3-3.24,28.74-5.43.94-.22.54-1.66-.4-1.45-17.75,4.12-34.86,8.56-52.39.81-.87-.39-1.64.91-.76,1.3Z"/></g><g class="cls-9"><path class="cls-10" d="M294.35,195.27c35,5.2,65.14,29.44,101.28,28.82a.75.75,0,0,0,0-1.5c-36,.62-66-23.59-100.88-28.76-.94-.14-1.35,1.3-.4,1.45Z"/><path class="cls-10" d="M333.75,204.28c21.42,2.42,39.84,17.63,61.91,16.08,1-.07,1-1.57,0-1.5-22,1.55-40.51-13.66-61.91-16.08-1-.11-.95,1.39,0,1.5Z"/><path class="cls-10" d="M357.79,271.33c7.77-3.36,15-2.54,22.75.19,5.1,1.79,10,3.21,15.29,1.36.9-.32.52-1.77-.4-1.45-8,2.82-15.12-2.6-22.89-3.71A28.49,28.49,0,0,0,357,270c-.88.38-.12,1.67.76,1.3Z"/><path class="cls-10" d="M293.61,299.51c16.57-2.17,33.7-5.79,50.46-4.28,17.31,1.56,33.73,7.76,49.85,13.87.9.34,1.29-1.11.4-1.45-15.69-5.94-31.61-11.93-48.41-13.74-17.38-1.87-35.11,1.85-52.3,4.1-.94.12-1,1.63,0,1.5Z"/><path class="cls-10" d="M328.9,288.87a173.34,173.34,0,0,1,67,18.31c.86.43,1.62-.86.76-1.3a175.3,175.3,0,0,0-67.8-18.52c-1-.06-1,1.44,0,1.5Z"/></g><g class="cls-9"><path class="cls-10" d="M19.48,182.09c21.25,2.66,44.16,5,63-7.4.8-.53.05-1.83-.76-1.3-18.6,12.24-41.25,9.82-62.22,7.2-1-.12-.95,1.38,0,1.5Z"/><path class="cls-10" d="M56.83,190c5.32.07,10.78.1,15.77-2,5.23-2.23,10-6.06,14.78-9.14.81-.52.06-1.82-.76-1.3-4.17,2.7-8.28,5.75-12.67,8.08-5.37,2.85-11.17,3-17.11,2.87a.75.75,0,0,0,0,1.5Z"/></g><path class="cls-8" d="M88.64,191.35c12.12-.63,22.46-4.48,33.37-9.44,12.79-5.82,26.43-5.52,40.17-4.83,1,0,1-1.45,0-1.5-12-.6-24.48-1.19-36,3-5.74,2.08-11,5.23-16.76,7.29a72.49,72.49,0,0,1-20.8,4c-1,0-1,1.55,0,1.5Z"/><path class="cls-8" d="M163.66,187.67c12.12-.63,22.46-4.48,33.37-9.44,12.79-5.82,26.43-5.52,40.17-4.83,1,0,1-1.45,0-1.5-12-.6-24.48-1.19-36,3-5.74,2.08-11,5.23-16.76,7.29a72.49,72.49,0,0,1-20.8,4c-1,0-1,1.55,0,1.5Z"/><path class="cls-8" d="M229,204c11.94-3.47,21.16-9.89,30.9-17.32,10.91-8.33,24.17-11,37.39-13.47.95-.17.55-1.62-.4-1.45-11.83,2.17-24.12,4.47-34.35,11.17-5.23,3.43-9.74,7.83-15,11.19a73.09,73.09,0,0,1-18.91,8.42A.75.75,0,0,0,229,204Z"/><path class="cls-3" d="M387.54,312.65H28.81A10.81,10.81,0,0,1,18,301.85V180.69A10.81,10.81,0,0,1,28.81,169.9H387.54a10.81,10.81,0,0,1,10.79,10.79V301.85A10.81,10.81,0,0,1,387.54,312.65ZM28.81,172.9A7.8,7.8,0,0,0,21,180.69V301.85a7.8,7.8,0,0,0,7.79,7.79H387.54a7.8,7.8,0,0,0,7.79-7.79V180.69a7.8,7.8,0,0,0-7.79-7.79Z"/><rect class="cls-14" x="5.91" y="162.21" width="403.79" height="13.61" rx="6.8" ry="6.8"/><path class="cls-3" d="M402.9,177.31H12.72a8.3,8.3,0,1,1,0-16.61H402.9a8.3,8.3,0,1,1,0,16.61ZM12.72,163.71a5.3,5.3,0,1,0,0,10.61H402.9a5.3,5.3,0,1,0,0-10.61Z"/><g class="cls-15"><path class="cls-10" d="M6.91,170.2c8.91-1.54,17.42,2.81,26.34,1.73s17.77-5.19,26.21-8c.91-.3.52-1.75-.4-1.45-8.73,2.91-18.45,7.63-27.74,8.12-8.44.45-16.32-3.33-24.8-1.86-.95.16-.55,1.61.4,1.45Z"/><path class="cls-10" d="M51.41,172.9c15.39-3.22,30.95-5.54,46.5-7.83,1-.14.55-1.59-.4-1.45C82,165.91,66.4,168.23,51,171.45c-.94.2-.54,1.64.4,1.45Z"/><path class="cls-10" d="M78.66,172c14-2.86,27.55-5.06,41.79-2.78,11.87,1.9,22-1.29,32.94-5.73.88-.36.5-1.81-.4-1.45-5.71,2.32-11.48,4.66-17.56,5.81-6.87,1.3-13.11-.08-19.92-.88-12.52-1.48-25,1.08-37.26,3.58-.95.19-.55,1.64.4,1.45Z"/><path class="cls-10" d="M162.23,174.81c9.9-4.64,19.86-5.43,30.65-5.21,9.06.18,18,.44,26.76-2.26.92-.28.53-1.73-.4-1.45-10.39,3.21-21.09,2.1-31.78,2.13a60,60,0,0,0-26,5.48c-.87.41-.11,1.7.76,1.3Z"/><path class="cls-10" d="M185.45,175.21c7.82-1.74,15.42-2,23.38-2.22,7.15-.19,13.93-2.17,20.71-4.29.92-.29.53-1.74-.4-1.45-7.82,2.45-15.28,4.23-23.53,4.26a96,96,0,0,0-20.56,2.25c-.94.21-.54,1.66.4,1.45Z"/><path class="cls-10" d="M265.52,163.73c7.74,2.84,15.12,4.85,23.38,5.24,8.43.4,16.88.61,25.31.91,1,0,1-1.47,0-1.5-7.79-.28-15.59-.53-23.38-.84a79,79,0,0,1-24.92-5.27c-.91-.33-1.3,1.12-.4,1.45Z"/><path class="cls-10" d="M279.58,162.8c19.61,4.35,39.85,3.58,59.57,7.21.94.17,1.35-1.27.4-1.45-19.71-3.63-40-2.86-59.57-7.21-.94-.21-1.34,1.24-.4,1.45Z"/><path class="cls-10" d="M356.33,170.09c16,.41,32.12.41,47-6,.88-.38.12-1.67-.76-1.3-14.64,6.29-30.64,6.2-46.28,5.8a.75.75,0,0,0,0,1.5Z"/><path class="cls-10" d="M386.79,172.11a24.48,24.48,0,0,0,20.13-7c.69-.68-.37-1.74-1.06-1.06a23,23,0,0,1-19.07,6.61c-1-.1-1,1.4,0,1.5Z"/></g><rect class="cls-14" x="1.5" y="304.89" width="403.79" height="13.61" rx="6.8" ry="6.8"/><path class="cls-3" d="M398.49,320H8.3a8.3,8.3,0,1,1,0-16.61H398.49a8.3,8.3,0,1,1,0,16.61ZM8.3,306.39A5.3,5.3,0,1,0,8.3,317H398.49a5.3,5.3,0,1,0,0-10.61Z"/><g class="cls-15"><path class="cls-10" d="M2.5,312.89c8.91-1.54,17.42,2.81,26.34,1.73s17.77-5.19,26.21-8c.91-.3.52-1.75-.4-1.45-8.73,2.91-18.45,7.63-27.74,8.12-8.44.45-16.32-3.33-24.8-1.86-.95.16-.55,1.61.4,1.45Z"/><path class="cls-10" d="M47,315.58c15.39-3.22,30.95-5.54,46.5-7.83,1-.14.55-1.59-.4-1.45-15.56,2.28-31.11,4.6-46.5,7.83-.94.2-.54,1.64.4,1.45Z"/><path class="cls-10" d="M74.25,314.68c14-2.86,27.55-5.06,41.79-2.78,11.87,1.9,22-1.29,32.94-5.73.88-.36.5-1.81-.4-1.45-5.71,2.32-11.48,4.66-17.56,5.81-6.87,1.3-13.11-.08-19.92-.88-12.52-1.48-25,1.08-37.26,3.58-.95.19-.55,1.64.4,1.45Z"/><path class="cls-10" d="M157.82,317.5c9.9-4.64,19.86-5.43,30.65-5.21,9.06.18,18,.44,26.76-2.26.92-.28.53-1.73-.4-1.45-10.39,3.21-21.09,2.1-31.78,2.13a60,60,0,0,0-26,5.48c-.87.41-.11,1.7.76,1.3Z"/><path class="cls-10" d="M181,317.9c7.82-1.74,15.42-2,23.38-2.22,7.15-.19,13.93-2.17,20.71-4.29.92-.29.53-1.74-.4-1.45-7.82,2.45-15.28,4.23-23.53,4.26a96,96,0,0,0-20.56,2.25c-.94.21-.54,1.66.4,1.45Z"/><path class="cls-10" d="M261.11,306.42c7.74,2.84,15.12,4.85,23.38,5.24,8.43.4,16.88.61,25.31.91,1,0,1-1.47,0-1.5-7.79-.28-15.59-.53-23.38-.84A79,79,0,0,1,261.5,305c-.91-.33-1.3,1.12-.4,1.45Z"/><path class="cls-10" d="M275.16,305.49c19.61,4.35,39.85,3.58,59.57,7.21.94.17,1.35-1.27.4-1.45-19.71-3.63-40-2.86-59.57-7.21-.94-.21-1.34,1.24-.4,1.45Z"/><path class="cls-10" d="M351.92,312.78c16,.41,32.12.41,47-6,.88-.38.12-1.67-.76-1.3-14.64,6.29-30.64,6.2-46.28,5.8a.75.75,0,0,0,0,1.5Z"/><path class="cls-10" d="M382.37,314.79a24.48,24.48,0,0,0,20.13-7c.69-.68-.37-1.74-1.06-1.06a23,23,0,0,1-19.07,6.61c-1-.1-1,1.4,0,1.5Z"/></g></g></g></svg>